#!OML:ASF F:\VICON\USERDATA\INSTALL\rory3\rory3.ASF
:FULLY-SPECIFIED
:DEGREES
4978
root 14.7534 17.7561 -7.61202 -2158.58 1.29998 -355.561
lowerback 10.6282 1.03135 -0.0802149
upperback 0.65665 1.36155 0.0101539
thorax -5.27799 0.672585 -0.148242
lowerneck -15.5108 -6.60335 -11.4476
upperneck 29.3325 -9.01028 8.73905
head 13.4183 -4.12613 3.90987
rclavicle -1.59028e-015 7.95139e-016
rhumerus -31.9277 -1.0804 -87.18
rradius 40.2627
rwrist 0.593304
rhand -18.4316 8.99364
rfingers 7.12502
rthumb 7.85382 -20.8405
lclavicle -1.59028e-015 7.95139e-016
lhumerus -36.2487 -0.68525 82.9645
lradius 30.5481
lwrist -8.57918
lhand -14.4739 27.0144
lfingers 7.12502
lthumb 11.6721 56.6693
rfemur 0.108579 9.26279 28.767
rtibia 23.5855
rfoot -15.6653 10.3137
rtoes 28.4102
lfemur -23.4542 -9.6383 -16.0525
ltibia 32.4212
lfoot -8.8576 -3.80977
ltoes -21.4049
4979
root 14.7675 17.7549 -7.53916 -2158.54 0.50145 -355.608
lowerback 10.5682 1.01983 0.0261781
upperback 0.681989 1.35962 0.0275149
thorax -5.21581 0.669425 -0.188211
lowerneck -15.5997 -6.68683 -11.4448
upperneck 29.2717 -9.10626 8.68114
head 13.4211 -4.17421 3.86443
rclavicle 2.16675e-014 -3.18055e-015
rhumerus -31.8861 -1.24222 -87.0721
rradius 40.2467
rwrist 1.04964
rhand -17.6537 7.37984
rfingers 7.12502
rthumb 8.60456 -22.4248
lclavicle 2.16675e-014 -3.18055e-015
lhumerus -36.179 -0.692204 83.0469
lradius 30.431
lwrist -8.19029
lhand -14.9776 26.7518
lfingers 7.12502
lthumb 11.1864 56.4336
rfemur 0.487001 9.30793 28.7314
rtibia 23.2564
rfoot -15.8019 10.8799
rtoes 28.061
lfemur -23.639 -9.10507 -16.3155
ltibia 30.7684
lfoot -9.03618 -3.79652
ltoes -23.5841
4980
root 14.7794 17.7569 -7.46119 -2158.48 -0.301061 -355.562
lowerback 10.4567 1.00536 0.00204944
upperback 0.631107 1.33801 0.0378187
thorax -5.20759 0.659433 -0.159108
lowerneck -15.6223 -6.70965 -11.4521
upperneck 29.3107 -9.11602 8.59364
head 13.4392 -4.19163 3.82861
rclavicle 8.74653e-015 7.15625e-015
rhumerus -32.0405 -1.33224 -86.9749
rradius 40.2087
rwrist 1.28501
rhand -17.2464 6.67154
rfingers 7.12502
rthumb 8.99763 -23.1166
lclavicle 8.74653e-015 7.15625e-015
lhumerus -36.1179 0.013022 82.829
lradius 30.114
lwrist -8.80396
lhand -15.006 26.5019
lfingers 7.12502
lthumb 11.159 56.1851
rfemur 0.799476 9.45728 28.6146
rtibia 23.1148
rfoot -16.0807 11.2491
rtoes 27.4888
lfemur -23.789 -8.46401 -16.7076
ltibia 29.1236
lfoot -8.88451 -3.96279
ltoes -24.5408
4981
root 14.7912 17.7492 -7.38453 -2158.45 -1.05585 -355.469
lowerback 10.3612 1.00308 -0.0903907
upperback 0.587753 1.32561 0.0658326
thorax -5.20237 0.655784 -0.0747156
lowerneck -15.3927 -6.70782 -11.6182
upperneck 29.1585 -9.10639 8.6654
head 13.3385 -4.20503 3.88777
rclavicle 2.39536e-014 -3.18055e-015
rhumerus -32.1438 -1.49116 -86.7809
rradius 39.9098
rwrist 1.47372
rhand -17.2169 6.85337
rfingers 7.12502
rthumb 9.02601 -22.9335
lclavicle 2.39536e-014 -3.18055e-015
lhumerus -35.8845 1.26272 82.4557
lradius 29.5285
lwrist -10.1256
lhand -14.7008 26.6125
lfingers 7.12502
lthumb 11.4533 56.2796
rfemur 1.08674 9.58839 28.4562
rtibia 23.094
rfoot -16.3039 11.4925
rtoes 27.0699
lfemur -23.821 -7.79644 -17.1795
ltibia 27.4548
lfoot -8.86253 -4.36528
ltoes -23.3197
4982
root 14.8042 17.72 -7.31248 -2158.47 -1.73853 -355.488
lowerback 10.3374 1.01929 -0.0194312
upperback 0.648857 1.35589 0.0805367
thorax -5.12372 0.669287 -0.102542
lowerneck -15.1128 -6.75601 -11.7521
upperneck 28.7976 -9.19605 8.82468
head 13.1564 -4.24802 3.95409
rclavicle -1.0635e-014 -1.59028e-015
rhumerus -32.1167 -1.86948 -86.5233
rradius 39.5566
rwrist 1.63343
rhand -17.2389 7.39107
rfingers 7.12502
rthumb 9.00484 -22.3967
lclavicle -1.0635e-014 -1.59028e-015
lhumerus -35.6753 1.54974 82.3993
lradius 29.4539
lwrist -10.6406
lhand -14.3861 26.7149
lfingers 7.12502
lthumb 11.7568 56.365
rfemur 1.39003 9.54422 28.4057
rtibia 23.0174
rfoot -16.2963 11.9228
rtoes 27.2377
lfemur -23.7144 -6.93585 -17.6363
ltibia 25.8663
lfoot -9.05834 -4.7387
ltoes -24.1858
4983
root 14.811 17.7064 -7.23957 -2158.47 -2.39867 -355.549
lowerback 10.3474 1.02136 0.0807877
upperback 0.706765 1.37122 0.105648
thorax -5.06692 0.674876 -0.134474
lowerneck -15.159 -6.82607 -11.8969
upperneck 28.6839 -9.30362 9.00171
head 13.1525 -4.28907 4.02599
rclavicle 3.91606e-014 3.18055e-015
rhumerus -32.1169 -2.13631 -86.3156
rradius 39.33
rwrist 1.59146
rhand -17.2599 7.52767
rfingers 7.12502
rthumb 8.9846 -22.261
lclavicle 3.91606e-014 3.18055e-015
lhumerus -35.6403 1.0994 82.6174
lradius 29.7847
lwrist -10.1876
lhand -14.3109 26.6682
lfingers 7.12502
lthumb 11.8293 56.3141
rfemur 1.64965 9.54578 28.3911
rtibia 22.9256
rfoot -16.1523 12.5494
rtoes 28.129
lfemur -23.9285 -5.88547 -18.1315
ltibia 24.3199
lfoot -8.87596 -5.16949
ltoes -25.3123
4984
root 14.8118 17.7271 -7.16741 -2158.36 -3.12877 -355.584
lowerback 10.2977 1.02053 0.0953857
upperback 0.641964 1.37439 0.154365
thorax -5.10786 0.676465 -0.0921647
lowerneck -15.1255 -6.85964 -12.0249
upperneck 28.6398 -9.34205 9.06616
head 13.144 -4.31449 4.06579
rclavicle -7.25564e-015 -5.56597e-015
rhumerus -32.2351 -2.20279 -86.1798
rradius 39.0988
rwrist 1.71011
rhand -17.2898 7.07268
rfingers 7.12502
rthumb 8.9557 -22.7172
lclavicle -7.25564e-015 -5.56597e-015
lhumerus -35.794 0.861269 82.7931
lradius 30.1523
lwrist -9.75398
lhand -14.2639 26.8581
lfingers 7.12502
lthumb 11.8746 56.5014
rfemur 1.89912 9.64573 28.3074
rtibia 22.7099
rfoot -16.0967 13.1199
rtoes 28.4079
lfemur -24.2614 -5.01428 -18.5663
ltibia 22.9336
lfoot -8.45173 -5.77196
ltoes -23.5249
4985
root 14.8145 17.7366 -7.08916 -2158.22 -3.88113 -355.554
lowerback 10.1446 1.0421 0.0496932
upperback 0.60349 1.39798 0.16157
thorax -5.06374 0.689337 -0.0597966
lowerneck -15.0217 -6.84667 -12.0242
upperneck 28.4781 -9.34699 9.13026
head 13.0588 -4.31308 4.0878
rclavicle 5.86415e-015 -3.97569e-015
rhumerus -32.2819 -2.4887 -86.0159
rradius 38.7349
rwrist 2.10707
rhand -17.3166 6.99477
rfingers 7.12502
rthumb 8.92982 -22.7963
lclavicle 5.86415e-015 -3.97569e-015
lhumerus -35.9783 0.571471 82.9595
lradius 30.6713
lwrist -9.38389
lhand -14.6586 26.842
lfingers 7.12502
lthumb 11.494 56.5069
rfemur 2.24212 9.64342 28.1207
rtibia 22.3543
rfoot -16.1476 13.6336
rtoes 28.0693
lfemur -24.4879 -4.00854 -19.1273
ltibia 21.6167
lfoot -8.01506 -6.59955
ltoes -23.3036
4986
root 14.8197 17.739 -7.00755 -2158.21 -4.58733 -355.642
lowerback 10.1935 1.06072 0.173316
upperback 0.562884 1.43873 0.194417
thorax -5.13145 0.706655 -0.10244
lowerneck -15.0747 -6.7803 -11.9256
upperneck 28.4636 -9.26636 9.10356
head 13.045 -4.27009 4.07286
rclavicle -1.71949e-014 -3.97569e-015
rhumerus -32.4094 -3.07871 -85.71
rradius 38.3837
rwrist 2.44431
rhand -16.83 6.89923
rfingers 7.12502
rthumb 9.39939 -22.8712
lclavicle -1.71949e-014 -3.97569e-015
lhumerus -36.1916 0.183279 83.192
lradius 31.1442
lwrist -9.06282
lhand -15.5801 26.6699
lfingers 7.12502
lthumb 10.6052 56.3823
rfemur 2.73776 9.71068 28.1054
rtibia 21.9912
rfoot -16.0697 14.1075
rtoes 28.0643
lfemur -24.5472 -3.00489 -19.5965
ltibia 20.4063
lfoot -7.64454 -7.45611
ltoes -23.0061
4987
root 14.8254 17.7349 -6.92527 -2158.21 -5.29965 -355.708
lowerback 10.2609 1.08022 0.319663
upperback 0.505741 1.4818 0.191878
thorax -5.22529 0.723945 -0.195762
lowerneck -15.1473 -6.74844 -11.8826
upperneck 28.4961 -9.23383 9.11219
head 13.0671 -4.24954 4.07392
rclavicle -9.93923e-017 -1.74931e-014
rhumerus -32.5473 -3.64995 -85.4129
rradius 37.961
rwrist 2.5128
rhand -16.4605 7.55179
rfingers 7.12502
rthumb 9.75584 -22.2022
lclavicle -9.93923e-017 -1.74931e-014
lhumerus -36.439 -0.276834 83.399
lradius 31.6144
lwrist -8.52642
lhand -16.0334 26.9701
lfingers 7.12502
lthumb 10.1679 56.7044
rfemur 3.15697 9.9042 28.0795
rtibia 21.776
rfoot -15.8834 14.5746
rtoes 28.5487
lfemur -24.6522 -2.21678 -20.0396
ltibia 19.238
lfoot -7.63908 -8.26645
ltoes -21.8051
4988
root 14.8302 17.7257 -6.84574 -2158.14 -5.91514 -355.71
lowerback 10.1946 1.06796 0.396209
upperback 0.52486 1.47274 0.172551
thorax -5.16562 0.717672 -0.256006
lowerneck -15.3919 -6.80925 -11.8684
upperneck 28.5402 -9.31514 9.13711
head 13.1491 -4.27475 4.06271
rclavicle -2.36554e-014 0
rhumerus -32.4511 -3.87868 -85.2806
rradius 37.2633
rwrist 2.14568
rhand -16.5279 8.69706
rfingers 7.12502
rthumb 9.69086 -21.06
lclavicle -2.36554e-014 0
lhumerus -36.4919 -0.417897 83.4745
lradius 32.0838
lwrist -8.12124
lhand -15.9053 26.9924
lfingers 7.12502
lthumb 10.2915 56.7206
rfemur 3.46133 10.0189 27.9765
rtibia 21.5455
rfoot -15.6434 15.0276
rtoes 28.8088
lfemur -24.9105 -1.42951 -20.5872
ltibia 18.2334
lfoot -7.68957 -9.27142
ltoes -22.424
4989
root 14.8308 17.7193 -6.77067 -2158.06 -6.40904 -355.837
lowerback 10.2375 1.01706 0.536532
upperback 0.474755 1.42413 0.215242
thorax -5.24021 0.690405 -0.284906
lowerneck -15.3922 -6.84094 -11.9441
upperneck 28.4947 -9.38136 9.26443
head 13.1514 -4.29777 4.11325
rclavicle -9.93923e-015 -7.95139e-015
rhumerus -32.4597 -3.98542 -85.2206
rradius 36.4954
rwrist 1.61184
rhand -17.1483 8.0858
rfingers 7.12502
rthumb 9.09227 -21.6982
lclavicle -9.93923e-015 -7.95139e-015
lhumerus -36.6463 -0.482004 83.5391
lradius 32.4964
lwrist -7.85019
lhand -16.0684 26.3539
lfingers 7.12502
lthumb 10.1342 56.0899
rfemur 3.75821 10.1544 28.0665
rtibia 21.327
rfoot -15.359 15.2295
rtoes 28.8679
lfemur -25.1426 -0.805567 -20.9594
ltibia 17.3342
lfoot -7.48703 -10.2439
ltoes -23.5018
4990
root 14.8317 17.718 -6.68653 -2158.14 -7.01151 -356.084
lowerback 10.4447 1.0083 0.847935
upperback 0.377674 1.45467 0.2694
thorax -5.45178 0.696833 -0.413502
lowerneck -15.104 -6.8009 -11.9847
upperneck 28.3835 -9.37076 9.36128
head 13.0503 -4.29586 4.16356
rclavicle -2.0773e-014 1.59028e-014
rhumerus -32.7183 -4.24003 -85.066
rradius 35.8941
rwrist 1.424
rhand -18.4084 7.88841
rfingers 7.12502
rthumb 7.87613 -21.9449
lclavicle -2.0773e-014 1.59028e-014
lhumerus -36.9045 -0.740348 83.6776
lradius 32.7681
lwrist -7.40506
lhand -16.4345 25.758
lfingers 7.12502
lthumb 9.78098 55.5109
rfemur 4.26713 10.3264 28.3028
rtibia 21.1552
rfoot -15.1558 15.4584
rtoes 28.7483
lfemur -25.1203 -0.463853 -21.0825
ltibia 16.567
lfoot -7.24038 -10.9517
ltoes -23.7921
4991
root 14.8321 17.7164 -6.59392 -2158.23 -7.72917 -356.15
lowerback 10.5329 1.05246 0.93217
upperback 0.364773 1.52637 0.304699
thorax -5.51283 0.729806 -0.436767
lowerneck -15.0977 -6.7928 -12.016
upperneck 28.3864 -9.3653 9.39263
head 13.0531 -4.29457 4.18239
rclavicle -2.08724e-015 -7.95139e-015
rhumerus -32.9276 -4.52841 -84.7829
rradius 35.3957
rwrist 1.69274
rhand -19.0873 9.06585
rfingers 7.12502
rthumb 7.22093 -20.791
lclavicle -2.08724e-015 -7.95139e-015
lhumerus -36.9902 -0.97519 83.8952
lradius 32.9715
lwrist -6.76035
lhand -16.7449 25.6038
lfingers 7.12502
lthumb 9.4815 55.3705
rfemur 4.79081 10.4397 28.2766
rtibia 20.9638
rfoot -14.8955 15.9974
rtoes 29.353
lfemur -25.1033 -0.266189 -21.3192
ltibia 16.0278
lfoot -6.85474 -11.6156
ltoes -22.2945
4992
root 14.8299 17.7151 -6.50515 -2158.21 -8.35747 -356.137
lowerback 10.459 1.0981 0.854979
upperback 0.406334 1.57932 0.35858
thorax -5.43063 0.759104 -0.342838
lowerneck -15.336 -6.8406 -12.0092
upperneck 28.4291 -9.40137 9.34534
head 13.1234 -4.30913 4.1517
rclavicle -1.99779e-014 -7.95139e-015
rhumerus -32.9175 -4.92849 -84.4242
rradius 34.6986
rwrist 2.16063
rhand -18.8125 9.54574
rfingers 7.12502
rthumb 7.48615 -20.3018
lclavicle -1.99779e-014 -7.95139e-015
lhumerus -37.0253 -1.25755 84.1709
lradius 33.4261
lwrist -6.06733
lhand -16.6942 25.9952
lfingers 7.12502
lthumb 9.5304 55.7596
rfemur 5.12831 10.4841 28.1352
rtibia 20.7849
rfoot -14.4522 16.5299
rtoes 30.3562
lfemur -25.2214 -0.494621 -21.5189
ltibia 15.6516
lfoot -6.54836 -11.951
ltoes -20.6518
